<?xml version="1.0" encoding="UTF-8" standalone="no"?>
<!DOCTYPE svg PUBLIC "-//W3C//DTD SVG 1.1//EN" "http://www.w3.org/Graphics/SVG/1.1/DTD/svg11.dtd">
<svg width="100%" height="100%" viewBox="0 0 64 64" version="1.1" xmlns="http://www.w3.org/2000/svg" xmlns:xlink="http://www.w3.org/1999/xlink" xml:space="preserve" xmlns:serif="http://www.serif.com/" style="fill-rule:evenodd;clip-rule:evenodd;stroke-linejoin:round;stroke-miterlimit:2;">
    <g transform="matrix(0.749395,0,0,0.749389,8.019353,9.198867)">
        <path d="M64,16.013L64,47.987C64,56.825 56.825,64 47.987,64L16.013,64C7.175,64 0,56.825 0,47.987L0,16.013C0,7.175 7.175,0 16.013,0L47.987,0C56.825,0 64,7.175 64,16.013Z" style="fill:rgb(25,135,84);"/>
    </g>
    <g transform="matrix(1.342105,0,0,1.342105,-5.428796,-9.726858)">
        <circle cx="18.281" cy="31.969" r="2.988" style="fill:white;"/>
    </g>
    <g transform="matrix(1,0,0,1,1.375554,0.738283)">
        <path d="M44.54,26.191L44.54,38.691C44.54,42.141 41.74,44.942 38.29,44.942L25.789,44.942C22.34,44.942 19.539,42.141 19.539,38.691L19.539,26.191C19.539,22.741 22.34,19.94 25.789,19.94L38.29,19.94C41.74,19.94 44.54,22.741 44.54,26.191Z" style="fill:white;"/>
    </g>
    <g transform="matrix(1.342105,0,0,1.342105,18.472022,-4.537864)">
        <circle cx="18.281" cy="31.969" r="2.988" style="fill:rgb(25,135,84);"/>
    </g>
    <g transform="matrix(1.342105,0,0,1.342105,18.472022,-14.915851)">
        <circle cx="18.281" cy="31.969" r="2.988" style="fill:rgb(25,135,84);"/>
    </g>
</svg>
